<?xml version="1.0" encoding="UTF-8" standalone="no"?>
<svg
   xmlns:dc="http://purl.org/dc/elements/1.1/"
   xmlns:cc="http://creativecommons.org/ns#"
   xmlns:rdf="http://www.w3.org/1999/02/22-rdf-syntax-ns#"
   xmlns:svg="http://www.w3.org/2000/svg"
   xmlns="http://www.w3.org/2000/svg"
   xmlns:sodipodi="http://sodipodi.sourceforge.net/DTD/sodipodi-0.dtd"
   xmlns:inkscape="http://www.inkscape.org/namespaces/inkscape"
   width="64"
   height="64"
   version="1.1"
   id="svg68"
   sodipodi:docname="icon-enabled.svg"
   inkscape:version="1.0.2 (e86c870879, 2021-01-15, custom)">
  <metadata
     id="metadata74">
    <rdf:RDF>
      <cc:Work
         rdf:about="">
        <dc:format>image/svg+xml</dc:format>
        <dc:type
           rdf:resource="http://purl.org/dc/dcmitype/StillImage" />
        <dc:title></dc:title>
      </cc:Work>
    </rdf:RDF>
  </metadata>
  <defs
     id="defs72" />
  <sodipodi:namedview
     pagecolor="#ffffff"
     bordercolor="#666666"
     borderopacity="1"
     objecttolerance="10"
     gridtolerance="10"
     guidetolerance="10"
     inkscape:pageopacity="0"
     inkscape:pageshadow="2"
     inkscape:window-width="1916"
     inkscape:window-height="1020"
     id="namedview70"
     showgrid="false"
     inkscape:zoom="12.71875"
     inkscape:cx="16.864865"
     inkscape:cy="32"
     inkscape:window-x="1080"
     inkscape:window-y="347"
     inkscape:window-maximized="1"
     inkscape:current-layer="svg68" />
  <path
     d="M31.994-.006c-2.85 6.985-4.568 11.554-7.74 18.332 1.945 2.062 4.332 4.462 8.2 7.174-4.168-1.715-7-3.437-9.136-5.224-4.06 8.47-10.42 20.538-23.327 43.73C10.145 58.15 18 54.54 25.338 53.16c-.315-1.354-.494-2.818-.48-4.345l.012-.325c.16-6.5 3.542-11.498 7.547-11.158s7.118 5.886 6.957 12.386a18.36 18.36 0 0 1-.409 3.491c7.25 1.418 15.03 5.02 25.037 10.797l-5.42-10.026c-2.65-2.053-5.413-4.726-11.05-7.62 3.875 1.007 6.65 2.168 8.8 3.467-17.1-31.84-18.486-36.07-24.35-49.833z"
     fill="#1793d1"
     fill-rule="evenodd"
     id="path66" />
  <path
     style="fill:#ebdbb2;fill-opacity:1;stroke-width:0.0786241"
     d="m -0.03931204,63.997736 c 0,-0.02287 0.98601679,-1.818445 2.19114834,-3.990172 C 9.2053103,47.296733 14.476938,37.551428 18.556917,29.68059 c 1.08734,-2.097627 4.622487,-9.15492 4.695273,-9.373278 0.02063,-0.0619 0.32544,0.124114 0.813015,0.496167 1.404362,1.071625 2.741151,1.916833 4.462219,2.821318 1.052016,0.552872 3.2813,1.595144 3.322878,1.553566 0.01254,-0.01254 -0.497051,-0.417641 -1.132424,-0.900225 -0.635374,-0.482583 -1.689085,-1.336534 -2.341582,-1.897669 -1.296792,-1.115216 -4.120768,-3.894255 -4.120768,-4.055196 0,-0.0553 0.392119,-0.961803 0.871374,-2.014456 1.579461,-3.469174 2.695871,-6.119143 5.381043,-12.7727335 0.767868,-1.9027027 1.420766,-3.48728286 1.450883,-3.52128927 0.03012,-0.03400642 0.366382,0.67361025 0.747256,1.57248157 4.788428,11.3008092 6.239391,14.5008722 9.992066,22.0372602 3.212615,6.451798 6.778101,13.29653 12.152552,23.329482 0.815897,1.523107 1.48345,2.807667 1.48345,2.854579 0,0.04691 -0.150368,-0.0083 -0.334152,-0.122775 -0.636462,-0.396311 -2.855226,-1.436506 -3.990381,-1.870759 -1.059653,-0.40537 -3.766362,-1.265889 -3.818327,-1.213925 -0.01265,0.01265 0.511092,0.323274 1.163871,0.690275 2.378641,1.337305 4.682192,2.950915 7.712286,5.402367 l 1.558851,1.261164 2.708938,5.012544 c 1.489916,2.756899 2.694002,5.027481 2.675743,5.045738 -0.01826,0.01826 -0.806575,-0.407375 -1.751817,-0.94585 -6.345072,-3.614588 -12.292546,-6.455252 -16.735822,-7.99345 -2.032915,-0.703765 -4.560916,-1.418446 -6.122367,-1.730828 l -0.461433,-0.09231 0.04317,-0.287326 c 0.02375,-0.15803 0.103936,-0.676516 0.178201,-1.152191 0.190141,-1.21788 0.193648,-3.919706 0.0067,-5.149877 -0.730825,-4.808621 -3.085234,-8.400485 -5.999589,-9.152916 -0.618349,-0.159646 -1.639052,-0.159646 -2.257401,0 -1.74116,0.449534 -3.397319,2.045599 -4.504459,4.341012 -1.417926,2.939757 -1.868447,7.081764 -1.159077,10.656325 0.06723,0.338757 0.10514,0.63301 0.08426,0.653897 -0.02089,0.02089 -0.504393,0.140569 -1.074459,0.265964 -6.299183,1.385593 -13.580066,4.518483 -22.8587165,9.83587 -1.33173558,0.763188 -1.43746654,0.817191 -1.43746654,0.734193 z"
     id="path949" />
</svg>
